<mxfile host="app.diagrams.net" modified="2022-12-05T09:44:03.420Z" agent="5.0 (Macintosh; Intel Mac OS X 10_15_7) AppleWebKit/605.1.15 (KHTML, like Gecko) Version/16.1 Safari/605.1.15" version="20.6.0" etag="J1RSV-UxGo4zMZ-a6SdL" type="github">
  <diagram id="Nr3RRI3XhiCJz4DGvvTT" name="Page-1">
    <mxGraphModel dx="1234" dy="853" grid="1" gridSize="10" guides="1" tooltips="1" connect="1" arrows="1" fold="1" page="1" pageScale="1" pageWidth="827" pageHeight="1169" math="0" shadow="0">
      <root>
        <mxCell id="0" />
        <mxCell id="1" parent="0" />
        <mxCell id="pfQO6y4_AGUOiB9dd2Ct-1" value="&lt;font&gt;&lt;span style=&quot;caret-color: rgb(0, 0, 0); font-size: 14px;&quot;&gt;UIViewController&lt;/span&gt;&lt;/font&gt;" style="rounded=0;whiteSpace=wrap;html=1;fillColor=none;fontColor=#006633;strokeColor=#006600;strokeWidth=3;" vertex="1" parent="1">
          <mxGeometry x="354" y="450" width="120" height="40" as="geometry" />
        </mxCell>
        <mxCell id="pfQO6y4_AGUOiB9dd2Ct-5" style="edgeStyle=orthogonalEdgeStyle;rounded=0;orthogonalLoop=1;jettySize=auto;html=1;fontSize=14;fontColor=#6600CC;" edge="1" parent="1" source="pfQO6y4_AGUOiB9dd2Ct-2" target="pfQO6y4_AGUOiB9dd2Ct-1">
          <mxGeometry relative="1" as="geometry" />
        </mxCell>
        <mxCell id="pfQO6y4_AGUOiB9dd2Ct-2" value="&lt;font&gt;&lt;span style=&quot;caret-color: rgb(0, 0, 0); font-size: 14px;&quot;&gt;FeedViewController&lt;/span&gt;&lt;/font&gt;" style="rounded=0;whiteSpace=wrap;html=1;fillColor=none;fontColor=#6600CC;strokeColor=#7F00FF;strokeWidth=3;" vertex="1" parent="1">
          <mxGeometry x="350" y="350" width="140" height="40" as="geometry" />
        </mxCell>
        <mxCell id="pfQO6y4_AGUOiB9dd2Ct-6" value="&lt;font&gt;&lt;span style=&quot;caret-color: rgb(0, 0, 0); font-size: 14px;&quot;&gt;&amp;lt;FeedLoader&amp;gt;&lt;/span&gt;&lt;/font&gt;" style="rounded=0;whiteSpace=wrap;html=1;fillColor=none;fontColor=#6600CC;strokeColor=#7F00FF;strokeWidth=3;" vertex="1" parent="1">
          <mxGeometry x="350" y="250" width="140" height="40" as="geometry" />
        </mxCell>
        <mxCell id="pfQO6y4_AGUOiB9dd2Ct-7" value="&lt;span style=&quot;caret-color: rgb(0, 0, 0); font-size: 14px;&quot;&gt;RemoteFeedLoader&lt;/span&gt;" style="rounded=0;whiteSpace=wrap;html=1;fillColor=none;fontColor=#6600CC;strokeColor=#7F00FF;strokeWidth=3;" vertex="1" parent="1">
          <mxGeometry x="200" y="150" width="140" height="40" as="geometry" />
        </mxCell>
        <mxCell id="pfQO6y4_AGUOiB9dd2Ct-8" value="&lt;span style=&quot;caret-color: rgb(0, 0, 0); font-size: 14px;&quot;&gt;LocalFeedLoader&lt;/span&gt;" style="rounded=0;whiteSpace=wrap;html=1;fillColor=none;fontColor=#6600CC;strokeColor=#7F00FF;strokeWidth=3;" vertex="1" parent="1">
          <mxGeometry x="500" y="150" width="140" height="40" as="geometry" />
        </mxCell>
      </root>
    </mxGraphModel>
  </diagram>
</mxfile>
